<svg width="32" height="32" viewBox="0 0 32 32" fill="none" xmlns="http://www.w3.org/2000/svg">
<path d="M31.297 7.90254C31.9991 10.3596 31.9991 15.6247 31.9991 15.6247C31.9991 15.6247 31.9991 20.8312 31.297 23.3468C30.946 24.7508 29.8345 25.8038 28.489 26.1548C25.9735 26.7983 16.0283 26.7983 16.0283 26.7983C16.0283 26.7983 6.02465 26.7983 3.50911 26.1548C2.16359 25.8038 1.05207 24.7508 0.701065 23.3468C-0.000946045 20.8312 -0.000946045 15.6247 -0.000946045 15.6247C-0.000946045 15.6247 -0.000946045 10.3596 0.701065 7.90254C1.05207 6.49852 2.16359 5.387 3.50911 5.036C6.02465 4.33398 16.0283 4.33398 16.0283 4.33398C16.0283 4.33398 25.9735 4.33398 28.489 5.036C29.8345 5.387 30.946 6.49852 31.297 7.90254ZM12.7523 20.3632L21.0594 15.6247L12.7523 10.8861V20.3632Z" fill="black"/>
</svg>
